<?xml version="1.0" encoding="UTF-8"?>
<svg id="Ebene_2" data-name="Ebene 2" xmlns="http://www.w3.org/2000/svg" viewBox="0 0 195 216.32">
  <defs>
    <style>
      .cls-1 {
        fill: #bf6c19;
      }

      .cls-1, .cls-2, .cls-3, .cls-4, .cls-5 {
        stroke-width: 0px;
      }

      .cls-6 {
        font-size: 19.6px;
      }

      .cls-6, .cls-7 {
        fill: #fff;
      }

      .cls-6, .cls-7, .cls-8 {
        font-family: Oswald-Bold, Oswald;
        font-weight: 700;
      }

      .cls-2 {
        fill: #f15a24;
      }

      .cls-3 {
        fill: #b3b3b3;
      }

      .cls-4 {
        fill: #f7931e;
      }

      .cls-5 {
        fill: #f1edd7;
      }

      .cls-7 {
        font-size: 53.11px;
      }

      .cls-8 {
        fill: #666;
        font-size: 96.11px;
      }

      .cls-9 {
        letter-spacing: -.02em;
      }
    </style>
  </defs>
  <g id="Ebene_7" data-name="Ebene 7">
    <path class="cls-3" d="M193.63,8.78H6.38c-.76,0-1.37.61-1.37,1.37v196.66c0,.76.61,1.37,1.37,1.37h187.25c.76,0,1.37-.61,1.37-1.37V10.14c0-.76-.61-1.37-1.37-1.37ZM176.82,10.03c3.12,0,5.64,2.53,5.64,5.64s-2.53,5.64-5.64,5.64-5.64-2.53-5.64-5.64,2.53-5.64,5.64-5.64ZM156.44,10.03c3.12,0,5.64,2.53,5.64,5.64s-2.53,5.64-5.64,5.64-5.64-2.53-5.64-5.64,2.53-5.64,5.64-5.64ZM136.06,10.03c3.12,0,5.64,2.53,5.64,5.64s-2.53,5.64-5.64,5.64-5.64-2.53-5.64-5.64,2.53-5.64,5.64-5.64ZM115.68,10.03c3.12,0,5.64,2.53,5.64,5.64s-2.53,5.64-5.64,5.64-5.64-2.53-5.64-5.64,2.53-5.64,5.64-5.64ZM95.31,10.03c3.12,0,5.64,2.53,5.64,5.64s-2.53,5.64-5.64,5.64-5.64-2.53-5.64-5.64,2.53-5.64,5.64-5.64ZM74.93,10.03c3.12,0,5.64,2.53,5.64,5.64s-2.53,5.64-5.64,5.64-5.64-2.53-5.64-5.64,2.53-5.64,5.64-5.64ZM54.55,10.03c3.12,0,5.64,2.53,5.64,5.64s-2.53,5.64-5.64,5.64-5.64-2.53-5.64-5.64,2.53-5.64,5.64-5.64ZM34.17,10.03c3.12,0,5.64,2.53,5.64,5.64s-2.53,5.64-5.64,5.64-5.64-2.53-5.64-5.64,2.53-5.64,5.64-5.64ZM13.79,10.03c3.12,0,5.64,2.53,5.64,5.64s-2.53,5.64-5.64,5.64-5.64-2.53-5.64-5.64,2.53-5.64,5.64-5.64Z"/>
    <path class="cls-5" d="M188.62,6.27H1.37c-.76,0-1.37.61-1.37,1.37v196.66c0,.76.61,1.37,1.37,1.37h187.25c.76,0,1.37-.61,1.37-1.37V7.64c0-.76-.61-1.37-1.37-1.37ZM8.15,15.68c0-3.12,2.53-5.64,5.64-5.64s5.64,2.53,5.64,5.64-2.53,5.64-5.64,5.64-5.64-2.53-5.64-5.64ZM28.53,15.68c0-3.12,2.53-5.64,5.64-5.64s5.64,2.53,5.64,5.64-2.53,5.64-5.64,5.64-5.64-2.53-5.64-5.64ZM48.91,15.68c0-3.12,2.53-5.64,5.64-5.64s5.64,2.53,5.64,5.64-2.53,5.64-5.64,5.64-5.64-2.53-5.64-5.64ZM69.28,15.68c0-3.12,2.53-5.64,5.64-5.64s5.64,2.53,5.64,5.64-2.53,5.64-5.64,5.64-5.64-2.53-5.64-5.64ZM89.66,15.68c0-3.12,2.53-5.64,5.64-5.64s5.64,2.53,5.64,5.64-2.53,5.64-5.64,5.64-5.64-2.53-5.64-5.64ZM110.04,15.68c0-3.12,2.53-5.64,5.64-5.64s5.64,2.53,5.64,5.64-2.53,5.64-5.64,5.64-5.64-2.53-5.64-5.64ZM130.42,15.68c0-3.12,2.53-5.64,5.64-5.64s5.64,2.53,5.64,5.64-2.53,5.64-5.64,5.64-5.64-2.53-5.64-5.64ZM150.8,15.68c0-3.12,2.53-5.64,5.64-5.64s5.64,2.53,5.64,5.64-2.53,5.64-5.64,5.64-5.64-2.53-5.64-5.64ZM171.17,15.68c0-3.12,2.53-5.64,5.64-5.64s5.64,2.53,5.64,5.64-2.53,5.64-5.64,5.64-5.64-2.53-5.64-5.64Z"/>
    <path class="cls-2" d="M188.62,6.27H1.37c-.76,0-1.37.61-1.37,1.37v71.88c0,.76.61,1.37,1.37,1.37h187.25c.76,0,1.37-.61,1.37-1.37V7.64c0-.76-.61-1.37-1.37-1.37ZM13.79,21.32c-3.12,0-5.64-2.53-5.64-5.64s2.53-5.64,5.64-5.64,5.64,2.53,5.64,5.64-2.53,5.64-5.64,5.64ZM34.17,21.32c-3.12,0-5.64-2.53-5.64-5.64s2.53-5.64,5.64-5.64,5.64,2.53,5.64,5.64-2.53,5.64-5.64,5.64ZM54.55,21.32c-3.12,0-5.64-2.53-5.64-5.64s2.53-5.64,5.64-5.64,5.64,2.53,5.64,5.64-2.53,5.64-5.64,5.64ZM74.93,21.32c-3.12,0-5.64-2.53-5.64-5.64s2.53-5.64,5.64-5.64,5.64,2.53,5.64,5.64-2.53,5.64-5.64,5.64ZM95.31,21.32c-3.12,0-5.64-2.53-5.64-5.64s2.53-5.64,5.64-5.64,5.64,2.53,5.64,5.64-2.53,5.64-5.64,5.64ZM115.68,21.32c-3.12,0-5.64-2.53-5.64-5.64s2.53-5.64,5.64-5.64,5.64,2.53,5.64,5.64-2.53,5.64-5.64,5.64ZM136.06,21.32c-3.12,0-5.64-2.53-5.64-5.64s2.53-5.64,5.64-5.64,5.64,2.53,5.64,5.64-2.53,5.64-5.64,5.64ZM156.44,21.32c-3.12,0-5.64-2.53-5.64-5.64s2.53-5.64,5.64-5.64,5.64,2.53,5.64,5.64-2.53,5.64-5.64,5.64ZM176.82,21.32c-3.12,0-5.64-2.53-5.64-5.64s2.53-5.64,5.64-5.64,5.64,2.53,5.64,5.64-2.53,5.64-5.64,5.64Z"/>
    <g>
      <rect class="cls-4" x="11.91" width="4.39" height="18.18"/>
      <rect class="cls-1" x="14.11" width="2.19" height="18.18"/>
    </g>
    <g>
      <rect class="cls-4" x="31.98" width="4.39" height="18.18"/>
      <rect class="cls-1" x="34.18" width="2.19" height="18.18"/>
    </g>
    <g>
      <rect class="cls-4" x="52.67" width="4.39" height="18.18"/>
      <rect class="cls-1" x="54.87" width="2.19" height="18.18"/>
    </g>
    <g>
      <rect class="cls-4" x="72.73" width="4.39" height="18.18"/>
      <rect class="cls-1" x="74.93" width="2.19" height="18.18"/>
    </g>
    <g>
      <rect class="cls-4" x="93.42" width="4.39" height="18.18"/>
      <rect class="cls-1" x="95.62" width="2.19" height="18.18"/>
    </g>
    <g>
      <rect class="cls-4" x="113.49" width="4.39" height="18.18"/>
      <rect class="cls-1" x="115.69" width="2.19" height="18.18"/>
    </g>
    <g>
      <rect class="cls-4" x="134.18" width="4.39" height="18.18"/>
      <rect class="cls-1" x="136.38" width="2.19" height="18.18"/>
    </g>
    <g>
      <rect class="cls-4" x="154.24" width="4.39" height="18.18"/>
      <rect class="cls-1" x="156.44" width="2.19" height="18.18"/>
    </g>
    <g>
      <rect class="cls-4" x="174.31" width="4.39" height="18.18"/>
      <rect class="cls-1" x="176.51" width="2.19" height="18.18"/>
    </g>
    <text class="cls-7" transform="translate(19.36 72.86)"><tspan x="0" y="0">MAR</tspan></text>
    <text class="cls-8" transform="translate(41.38 182.01)"><tspan x="0" y="0">04</tspan></text>
    <text class="cls-6" transform="translate(138.5 72.91)"><tspan x="0" y="0">20</tspan><tspan class="cls-9" x="20.85" y="0">2</tspan><tspan x="30.61" y="0">4</tspan></text>
  </g>
</svg>